<?xml version="1.0" encoding="utf-8"?>
<!-- Generator: Adobe Illustrator 15.1.0, SVG Export Plug-In . SVG Version: 6.00 Build 0)  -->
<!DOCTYPE svg PUBLIC "-//W3C//DTD SVG 1.1//EN" "http://www.w3.org/Graphics/SVG/1.1/DTD/svg11.dtd">
<svg version="1.1" id="Layer_1" xmlns="http://www.w3.org/2000/svg" xmlns:xlink="http://www.w3.org/1999/xlink" x="0px" y="0px"
	 width="128px" height="128px" viewBox="0 0 128 128" enable-background="new 0 0 128 128" xml:space="preserve">
<rect fill="#FFFFFF" fill-opacity="0" width="128" height="128"/>
<g>
	<path opacity="0.6" fill="#FFFFFF" enable-background="new    " d="M71.525,101.637c-6.854,4.133-14.698,6.313-22.692,6.313
		c-24.259,0-43.949-19.686-43.949-43.95c0-24.26,19.69-43.949,43.949-43.949c7.995,0,15.712,2.338,22.562,6.466L54.936,53.878
		c-1.842-1.109-3.954-1.697-6.103-1.697c-6.524,0-11.821,5.295-11.821,11.818c0,6.526,5.296,11.821,11.821,11.821
		c2.149,0,4.261-0.59,6.103-1.697L71.525,101.637z"/>
	<polyline fill="#FFFFFF" points="123.116,38.546 123.116,89.867 123.116,38.546 99.461,32.934 99.461,46.563 110.285,49.37 
		110.285,93.076 123.116,89.867 	"/>
	<polygon opacity="0.6" fill="#FFFFFF" enable-background="new    " points="73.402,26.917 97.057,32.529 97.057,95.879 
		73.402,101.494 73.402,88.268 84.227,88.268 84.227,69.414 73.402,69.414 73.402,58.995 84.227,58.995 84.227,40.146 
		73.402,40.146 	"/>
</g>
<g>
	<path opacity="0.25" fill="#698B71" enable-background="new    " d="M71.525,101.637c-6.854,4.133-14.698,6.313-22.692,6.313
		C24.574,107.949,4.884,88.264,4.884,64c0-24.26,19.69-43.949,43.949-43.949c7.995,0,15.712,2.338,22.562,6.466L54.936,53.879
		c-1.842-1.109-3.954-1.697-6.103-1.697c-6.524,0-11.821,5.295-11.821,11.818c0,6.525,5.296,11.82,11.821,11.82
		c2.149,0,4.261-0.59,6.103-1.697L71.525,101.637z"/>
	<polyline fill="#2AA3B4" points="123.116,38.547 123.116,89.867 123.116,38.547 99.461,32.934 99.461,46.563 110.285,49.37 
		110.285,93.076 123.116,89.867 	"/>
	<polygon opacity="0.25" fill="#F1615F" enable-background="new    " points="73.402,26.918 97.057,32.529 97.057,95.879 
		73.402,101.494 73.402,88.268 84.227,88.268 84.227,69.414 73.402,69.414 73.402,58.995 84.227,58.995 84.227,40.146 
		73.402,40.146 	"/>
</g>
</svg>
