<?xml version="1.0" encoding="UTF-8" standalone="no"?>
<!-- Created with Inkscape (http://www.inkscape.org/) -->

<svg
   xmlns:dc="http://purl.org/dc/elements/1.1/"
   xmlns:cc="http://creativecommons.org/ns#"
   xmlns:rdf="http://www.w3.org/1999/02/22-rdf-syntax-ns#"
   xmlns:svg="http://www.w3.org/2000/svg"
   xmlns="http://www.w3.org/2000/svg"
   xmlns:sodipodi="http://sodipodi.sourceforge.net/DTD/sodipodi-0.dtd"
   xmlns:inkscape="http://www.inkscape.org/namespaces/inkscape"
   width="20mm"
   height="20mm"
   viewBox="0 0 70.866142 70.866141"
   id="svg4782"
   version="1.1"
   inkscape:version="0.91 r13725"
   sodipodi:docname="drawing.svg">
  <defs
     id="defs4784" />
  <sodipodi:namedview
     id="base"
     pagecolor="#ffffff"
     bordercolor="#666666"
     borderopacity="1.0"
     inkscape:pageopacity="0.0"
     inkscape:pageshadow="2"
     inkscape:zoom="7.9195959"
     inkscape:cx="44.87354"
     inkscape:cy="31.931844"
     inkscape:document-units="px"
     inkscape:current-layer="layer1"
     showgrid="false"
     inkscape:window-width="1792"
     inkscape:window-height="1071"
     inkscape:window-x="0"
     inkscape:window-y="0"
     inkscape:window-maximized="1" />
  <metadata
     id="metadata4787">
    <rdf:RDF>
      <cc:Work
         rdf:about="">
        <dc:format>image/svg+xml</dc:format>
        <dc:type
           rdf:resource="http://purl.org/dc/dcmitype/StillImage" />
        <dc:title></dc:title>
      </cc:Work>
    </rdf:RDF>
  </metadata>
  <g
     inkscape:label="Layer 1"
     inkscape:groupmode="layer"
     id="layer1"
     transform="translate(0,-981.49606)">
    <g
       transform="matrix(0.76074891,0,0,0.76074891,-2.6043746,981.42232)"
       id="g4211">
      <title
         id="title4213">Layer 1</title>
      <path
         inkscape:connector-curvature="0"
         id="svg_1"
         d="m 93.523,78.293 0,-24.443 c 0,-0.849 -0.689,-1.538 -1.538,-1.538 l -31.42,0 c -0.849,0 -1.538,0.689 -1.538,1.538 l 0,7.865 c 0,0.849 -0.689,1.538 -1.538,1.538 l -14.332,0 c -0.849,0 -1.538,-0.689 -1.538,-1.538 l 0,-7.865 c 0,-0.849 -0.689,-1.538 -1.538,-1.538 l -32.066,0 c -0.849,0 -1.538,0.689 -1.538,1.538 l 0,24.443 c 0,0.849 0.689,1.538 1.538,1.538 l 83.969,0 c 0.85,0 1.539,-0.689 1.539,-1.538 z" />
      <polygon
         id="svg_2"
         points="55.676,31.091 44.323,19.738 44.323,28.433 55.676,39.786 " />
      <polygon
         id="svg_3"
         points="55.676,44.85 44.323,33.497 44.323,42.192 55.676,53.545 " />
      <polygon
         id="svg_4"
         points="55.676,61.232 55.676,58.61 44.323,47.257 44.323,61.232 50,60.213 " />
      <polygon
         id="svg_5"
         points="55.676,13.516 44.323,13.516 44.323,14.673 55.676,26.026 " />
      <polygon
         id="svg_6"
         points="62.314,49.176 60.335,46.349 58.285,50.307 " />
      <polygon
         id="svg_7"
         points="39.665,46.349 37.686,49.176 41.715,50.307 " />
      <polygon
         id="svg_8"
         points="69.708,39.875 67.043,39.1 67.752,42.613 " />
      <polygon
         id="svg_9"
         points="62.985,39.895 60.971,39.566 59.416,41.097 62.985,43.301 " />
      <polygon
         id="svg_10"
         points="32.248,42.626 32.957,39.113 30.292,39.888 " />
      <polygon
         id="svg_11"
         points="39.029,39.579 37.015,39.909 37.015,43.315 40.584,41.11 " />
      <polygon
         id="svg_12"
         points="35.083,45.32 33.744,45.017 32.777,45.86 33.905,47.681 " />
      <polygon
         id="svg_13"
         points="67.376,46.652 66.038,46.349 65.07,47.193 66.199,49.013 " />
    </g>
  </g>
</svg>
