<svg width="20" height="20" xmlns="http://www.w3.org/2000/svg">

 <g>
  <title>background</title>
  <rect fill="none" id="canvas_background" height="22" width="22" y="-1" x="-1"/>
 </g>
 <g>
  <title>Layer 1</title>
  <g stroke="null" id="svg_1">
   <path id="svg_2" fill="#000000" d="m10,3.541407c-1.359724,0 -2.726837,0.518581 -3.763555,1.555286c-0.770985,0.770979 -1.238378,1.727388 -1.436562,2.724719c-2.011832,0.390278 -3.537979,2.147284 -3.537979,4.268134c0,2.406186 1.962842,4.369048 4.369048,4.369048l9.307971,0c2.094882,0 3.799172,-1.704289 3.799172,-3.799172c0,-1.977127 -1.523126,-3.586629 -3.454872,-3.763556c0.008928,-1.375116 -0.479493,-2.753072 -1.525614,-3.799172c-1.035806,-1.035859 -2.397885,-1.555286 -3.757609,-1.555286zm0,1.139752c1.071025,0 2.13162,0.398216 2.950285,1.216922c0.94607,0.946055 1.346407,2.231404 1.199133,3.460808a0.569933,0.569933 0 0 0 0.56393,0.641112l0.225576,0c1.483178,0 2.65942,1.176243 2.65942,2.65942c0,1.483178 -1.176243,2.65942 -2.65942,2.65942l-9.307971,0c-1.790208,0 -3.229296,-1.439088 -3.229296,-3.229296c0,-1.690612 1.285735,-3.067919 2.932486,-3.217426a0.569933,0.569933 0 0 0 0.510514,-0.498641c0.104857,-0.90327 0.504549,-1.780839 1.199114,-2.475398c0.817886,-0.817861 1.885206,-1.216922 2.956231,-1.216922zm0,3.229296c-0.189997,0 -0.290466,0.061138 -0.385844,0.148405l-2.089544,1.899578c-0.241285,0.223923 -0.237049,0.587333 -0.035636,0.807324c0.201432,0.219991 0.586326,0.23591 0.807324,0.035617l1.133825,-1.0329l0,4.030693c0,0.314723 0.255095,0.569876 0.569876,0.569876c0.314799,0 0.569876,-0.255152 0.569876,-0.569876l0,-4.030693l1.133825,1.0329c0.221017,0.200292 0.594266,0.173147 0.807324,-0.035617c0.224512,-0.219991 0.183386,-0.604847 -0.035636,-0.807324l-2.089544,-1.899578c-0.112892,-0.103356 -0.195847,-0.148405 -0.385844,-0.148405z"/>
  </g>
 </g>
</svg>