<?xml version="1.0" encoding="utf-8"?>
<!-- Generator: Adobe Illustrator 16.0.0, SVG Export Plug-In . SVG Version: 6.00 Build 0)  -->
<!DOCTYPE svg PUBLIC "-//W3C//DTD SVG 1.1//EN" "http://www.w3.org/Graphics/SVG/1.1/DTD/svg11.dtd">
<svg version="1.1" id="Layer_1" xmlns="http://www.w3.org/2000/svg" xmlns:xlink="http://www.w3.org/1999/xlink" x="0px" y="0px"
	 width="56.693px" height="56.693px" viewBox="0 0 56.693 56.693" enable-background="new 0 0 56.693 56.693" xml:space="preserve">
<g>
	<g>
		<g>
			<g>
				<g>
					<path fill="#7A611A" d="M322.004,399.507c0.267,0.09,0.443,0.268,0.71,0.268c0.622,0,1.065-0.62,1.065-1.243
						c0-0.266-0.09-0.531-0.267-0.799c-0.532-0.71-1.776-0.889-2.575-0.889v-0.711c0-0.266-0.09-0.443-0.444-0.443
						c-0.354,0-0.442,0.178-0.442,0.443v0.711c-1.954,0.179-3.554,1.511-3.554,3.642c0,1.154,0.532,1.955,1.954,2.664
						c0.443,0.178,0.978,0.444,1.6,0.533v2.485c-1.065,0-1.865-0.711-2.487-0.711s-1.154,0.623-1.154,1.334
						c0,1.154,1.511,1.597,2.665,1.775c0.354,0.088,0.62,0.088,0.889,0.088v0.711c0,0.266,0.089,0.443,0.442,0.443
						c0.355,0,0.443-0.179,0.443-0.443v-0.711c1.511-0.088,3.642-1.244,3.642-3.729c0-0.532-0.089-0.979-0.267-1.332
						c-0.533-1.243-1.953-1.776-3.285-2.221v-0.799v-1.51C321.294,399.153,321.648,399.33,322.004,399.507z M331.328,393.913
						c1.953,2.398,3.02,5.417,3.02,8.702c0,7.729-6.217,13.943-13.942,13.943c-2.842,0-5.506-0.89-7.726-2.31
						c-2.932,2.486-5.417,4.617-5.949,5.062l-1.421,1.244l-1.333-1.244c-2.131-1.775-11.722-9.945-15.186-13.32
						c-4.707-4.617-15.807-15.541-8.969-26.907c2.842-4.795,8.081-7.637,14.031-7.637c4.44,0,8.614,1.688,11.544,4.529
						c2.931-2.931,7.104-4.529,11.544-4.529c5.951,0,11.102,2.842,14.031,7.637C334.08,384.322,333.46,389.472,331.328,393.913z
						 M327.776,390.805c1.154-3.108,1.154-6.306-0.711-9.502c-2.042-3.375-5.86-5.417-10.213-5.417
						c-3.995,0-7.637,1.775-9.679,4.795l-1.865,2.664l-1.776-2.664c-2.042-3.021-5.684-4.795-9.68-4.795
						c-4.352,0-8.17,2.042-10.212,5.417c-4.44,7.37,1.332,14.651,8.258,21.401c2.842,2.842,10.035,9.058,13.409,11.9
						c1.065-0.89,2.487-2.131,4.084-3.554c-1.865-2.309-2.93-5.327-2.93-8.524c0-7.728,6.216-13.942,13.941-13.942
						C323.157,388.674,325.645,389.472,327.776,390.805z"/>
					<path fill="#7A611A" d="M320.938,406.168v-2.221c0.532,0.178,0.889,0.445,0.889,1.154
						C321.826,405.636,321.47,406.168,320.938,406.168z"/>
					<path fill="#7A611A" d="M319.073,400.13c0-0.533,0.354-0.977,0.889-1.064v1.953
						C319.517,401.017,319.073,400.662,319.073,400.13z"/>
				</g>
			</g>
		</g>
	</g>
</g>
<g>
	<path fill="#7A611A" d="M27.643,35.247c0-7.247,5.483-13.296,12.541-14.116c0.819-0.126,1.701-0.252,2.521-0.252
		c2.772,0.126,5.23,0.883,7.373,2.206c1.134-3.088,1.134-6.302-0.693-9.516c-2.017-3.34-5.86-5.419-10.208-5.419
		c-3.97,0-7.625,1.765-9.642,4.789l-1.891,2.646l-1.764-2.646c-2.017-3.024-5.672-4.789-9.642-4.789
		c-4.348,0-8.191,2.079-10.208,5.419c-4.411,7.373,1.323,14.619,8.255,21.361c2.836,2.836,10.019,9.074,13.422,11.91
		c0.882-0.693,1.954-1.701,3.214-2.771C28.84,41.737,27.643,38.649,27.643,35.247z M34.26,47.219
		c-2.584,2.205-4.727,4.033-5.167,4.41l-1.451,1.262L26.32,51.63c-2.143-1.764-11.72-9.955-15.186-13.295
		C6.407,33.733-4.683,22.832,2.186,11.427c2.835-4.789,8.065-7.625,13.989-7.625c4.411,0,8.633,1.702,11.531,4.537
		c2.899-2.961,7.121-4.537,11.532-4.537c5.924,0,11.091,2.836,14.053,7.625c3.087,5.23,2.521,10.397,0.378,14.809
		c1.953,2.395,3.024,5.419,3.024,8.695c0,4.791-2.457,9.074-6.112,11.596l-0.063,0.063c-2.395,1.828-5.355,2.898-8.569,2.898
		C39.05,49.487,36.466,48.669,34.26,47.219z M42.136,45.708c5.924,0,10.713-4.789,10.713-10.713c0-5.861-4.727-10.65-10.649-10.712
		h-0.063c-5.859,0-10.712,4.789-10.712,10.712c0,5.859,4.727,10.648,10.586,10.713C42.074,45.708,42.136,45.708,42.136,45.708z"/>
	<path fill="#7A611A" d="M41.822,33.481v-0.945v-0.314v-0.883c-0.567,0.127-0.945,0.441-0.945,1.135
		C40.877,33.104,41.318,33.419,41.822,33.481z M43.775,37.831c0-0.252-0.063-0.441-0.126-0.568
		c-0.126-0.314-0.441-0.504-0.819-0.629v2.33c0.378,0,0.693-0.252,0.819-0.629C43.775,38.145,43.775,37.956,43.775,37.831z
		 M41.822,29.071v-0.756c0-0.314,0.188-0.44,0.44-0.44c0.379,0,0.441,0.188,0.441,0.44v0.756c1.071,0,3.024,0.379,3.024,1.764
		c0,0.631-0.504,1.197-1.134,1.197s-1.135-0.629-1.891-0.629v2.33c1.891,0.568,3.844,1.387,3.844,3.719
		c0,2.646-2.143,3.844-3.844,3.971v0.756c0,0.252-0.188,0.441-0.441,0.441c-0.378,0-0.44-0.189-0.44-0.441v-0.631
		c-1.135-0.125-3.844-0.377-3.844-1.953c0-0.756,0.567-1.387,1.197-1.387c0.567,0,1.386,0.756,2.646,0.756v-2.646
		c-2.836-0.818-3.781-1.891-3.781-3.402C38.041,30.71,39.743,29.26,41.822,29.071z"/>
	<path fill="#7A611A" d="M41.444,32.284V32.6c0,0,0-0.064,0-0.127C41.381,32.411,41.381,32.348,41.444,32.284z"/>
</g>
</svg>
