<svg width="30" height="30" xmlns="http://www.w3.org/2000/svg">

 <g>
  <title>background</title>
  <rect fill="none" id="canvas_background" height="32" width="32" y="-1" x="-1"/>
 </g>
 <g>
  <title>Layer 1</title>
  <g stroke="null" id="svg_5">
   <path stroke="null" id="svg_1" d="m13.447826,25.773912l0,3.226087l3.104348,0l0,-3.226087c4.778261,-0.669565 8.521739,-4.443478 9.221739,-9.221739l3.226087,0l0,-3.104348l-3.226087,0c-0.669565,-4.778261 -4.443478,-8.521739 -9.221739,-9.221739l0,-3.226087l-3.104348,0l0,3.226087c-4.778261,0.669565 -8.521739,4.443478 -9.221739,9.221739l-3.226087,0l0,3.104348l3.226087,0c0.7,4.778261 4.443478,8.521739 9.221739,9.221739zm0,-18.382608l0,2.952174l3.104348,0l0,-2.952174c3.043478,0.608696 5.447826,3.013043 6.056521,6.056521l-2.952174,0l0,3.104348l2.952174,0c-0.608696,3.043478 -3.013043,5.447826 -6.056521,6.056521l0,-2.952174l-3.104348,0l0,2.952174c-3.043478,-0.608696 -5.447826,-3.013043 -6.056521,-6.056521l2.952174,0l0,-3.104348l-2.952174,0c0.608696,-3.043478 3.013043,-5.447826 6.056521,-6.056521z"/>
   <circle stroke="null" id="svg_2" r="2.343478" cy="14.999999" cx="14.999999"/>
  </g>
 </g>
</svg>