<?xml version="1.0" encoding="utf-8"?>
<!-- Generator: Adobe Illustrator 16.0.0, SVG Export Plug-In . SVG Version: 6.00 Build 0)  -->
<!DOCTYPE svg PUBLIC "-//W3C//DTD SVG 1.1//EN" "http://www.w3.org/Graphics/SVG/1.1/DTD/svg11.dtd">
<svg version="1.1" id="Layer_1" xmlns:sketch="http://www.bohemiancoding.com/sketch/ns"
	 xmlns="http://www.w3.org/2000/svg" xmlns:xlink="http://www.w3.org/1999/xlink" x="0px" y="0px" width="45.354px"
	 height="45.354px" viewBox="283.323 373.323 45.354 45.354" enable-background="new 283.323 373.323 45.354 45.354"
	 xml:space="preserve">
<title>16</title>
<desc>Created with Sketch.</desc>
<g sketch:type="MSPage">
	<path sketch:type="MSShapeGroup" stroke="#000000" stroke-miterlimit="10" d="M325.842,396.009l-5.974,5.974l-1.896-1.894
		l2.75-2.749h-13.384v13.375l2.741-2.742l1.895,1.896L306,415.842l-5.976-5.974l1.895-1.896l2.741,2.742V397.34h-13.383l2.749,2.749
		l-1.894,1.894l-5.976-5.974l5.976-5.976l1.894,1.894l-2.733,2.734h13.367v-13.376l-2.741,2.742l-1.895-1.895l5.976-5.976
		l5.975,5.976l-1.895,1.895l-2.741-2.742v13.376h13.366l-2.732-2.734l1.896-1.894L325.842,396.009z"/>
</g>
</svg>
