<?xml version="1.0" encoding="utf-8"?>
<!-- Generator: Adobe Illustrator 16.0.0, SVG Export Plug-In . SVG Version: 6.00 Build 0)  -->
<!DOCTYPE svg PUBLIC "-//W3C//DTD SVG 1.1//EN" "http://www.w3.org/Graphics/SVG/1.1/DTD/svg11.dtd">
<svg version="1.1" id="Layer_1" xmlns="http://www.w3.org/2000/svg" xmlns:xlink="http://www.w3.org/1999/xlink" x="0px" y="0px"
	 width="56.693px" height="56.693px" viewBox="277.654 367.653 56.693 56.693"
	 enable-background="new 277.654 367.653 56.693 56.693" xml:space="preserve">
<g>
	<path d="M332.001,416.945l-13.524-13.465c2.573-3.591,4.069-7.959,4.069-12.687c0-12.028-9.694-21.723-21.723-21.723
		s-21.723,9.694-21.723,21.723c0,12.029,9.694,21.723,21.723,21.723c4.668,0,9.036-1.496,12.567-4.01l13.524,13.524
		c1.196,1.197,3.231,1.197,4.428,0l0.658-0.658C333.198,420.177,333.198,418.201,332.001,416.945z M300.823,406.053
		c-8.438,0-15.26-6.822-15.26-15.26s6.822-15.26,15.26-15.26c8.438,0,15.26,6.822,15.26,15.26S309.262,406.053,300.823,406.053z"/>
	<path d="M308.005,388.04h-4.548v-4.548c0-1.496-1.197-2.693-2.693-2.693s-2.692,1.197-2.692,2.693v4.548h-4.488
		c-1.496,0-2.693,1.197-2.693,2.693c0,1.496,1.197,2.693,2.693,2.693h4.548v4.548c0,1.496,1.197,2.693,2.692,2.693
		c1.497,0,2.693-1.197,2.693-2.693v-4.548h4.548c1.496,0,2.692-1.197,2.692-2.693C310.757,389.238,309.501,388.04,308.005,388.04z"
		/>
</g>
</svg>
